<svg width="73" height="72" viewBox="0 0 73 72" fill="none" xmlns="http://www.w3.org/2000/svg">
<path d="M29.489 51H43.508M36.5 9V12M55.592 16.908L53.471 19.029M63.5 36H60.5M12.5 36H9.5M19.529 19.029L17.408 16.908M25.892 46.608C23.7946 44.5101 22.3664 41.8373 21.7879 38.9277C21.2095 36.0181 21.5068 33.0023 22.6422 30.2616C23.7776 27.521 25.7002 25.1785 28.1669 23.5305C30.6335 21.8824 33.5334 21.0028 36.5 21.0028C39.4666 21.0028 42.3665 21.8824 44.8331 23.5305C47.2998 25.1785 49.2224 27.521 50.3578 30.2616C51.4932 33.0023 51.7905 36.0181 51.2121 38.9277C50.6336 41.8373 49.2054 44.5101 47.108 46.608L45.464 48.249C44.5241 49.189 43.7786 50.305 43.2701 51.5332C42.7615 52.7614 42.4998 54.0777 42.5 55.407V57C42.5 58.5913 41.8679 60.1174 40.7426 61.2426C39.6174 62.3679 38.0913 63 36.5 63C34.9087 63 33.3826 62.3679 32.2574 61.2426C31.1321 60.1174 30.5 58.5913 30.5 57V55.407C30.5 52.722 29.432 50.145 27.536 48.249L25.892 46.608Z" stroke="#367FEE" stroke-width="4" stroke-linecap="round" stroke-linejoin="round"/>
</svg>
